<?xml version="1.0" encoding="UTF-8" standalone="no"?>
<svg
   xmlns:dc="http://purl.org/dc/elements/1.1/"
   xmlns:cc="http://creativecommons.org/ns#"
   xmlns:rdf="http://www.w3.org/1999/02/22-rdf-syntax-ns#"
   xmlns:svg="http://www.w3.org/2000/svg"
   xmlns="http://www.w3.org/2000/svg"
   viewBox="0 0 3145.8799 2408.9333"
   height="2408.9333"
   width="3145.8799"
   xml:space="preserve"
   id="svg2"
   version="1.1"><metadata
     id="metadata8"><rdf:RDF><cc:Work
         rdf:about=""><dc:format>image/svg+xml</dc:format><dc:type
           rdf:resource="http://purl.org/dc/dcmitype/StillImage" /></cc:Work></rdf:RDF></metadata><defs
     id="defs6"><clipPath
       id="clipPath18"
       clipPathUnits="userSpaceOnUse"><path
         id="path16"
         d="M 0,1806.7 H 2359.411 V 0 H 0 Z" /></clipPath></defs><g
     transform="matrix(1.3333333,0,0,-1.3333333,0,2408.9333)"
     id="g10"><g
       id="g12"><g
         clip-path="url(#clipPath18)"
         id="g14"><g
           transform="translate(226.3743,959.3106)"
           id="g20"><path
             id="path22"
             style="fill:#16202c;fill-opacity:1;fill-rule:nonzero;stroke:none"
             d="M 0,0 C 0,9.155 0,110.422 -1.73,135.024 -2.308,147.61 -7.499,154.476 -30,154.476 h -25.386 c -2.308,0 -4.038,0.572 -4.038,2.861 v 15.447 c 0,2.86 0.576,4.005 4.038,4.005 6.347,0 27.694,-1.717 82.502,-1.717 49.038,0 69.231,1.717 77.884,1.717 3.463,0 4.617,-1.145 4.617,-3.433 v -14.303 c 0,-3.433 -1.154,-4.577 -4.617,-4.577 H 76.154 c -15.576,0 -20.768,-4.578 -21.345,-16.593 C 54.231,128.73 53.077,55.497 53.077,-13.73 v -26.319 c 0,-72.66 -2.308,-128.73 -2.308,-141.89 0,-37.759 -4.037,-66.364 -21.345,-95.543 -23.653,-40.623 -63.463,-77.81 -107.309,-77.81 -10.387,0 -39.233,8.01 -39.233,33.186 0,17.163 13.848,27.46 32.308,27.46 19.617,0 38.656,-12.586 45.003,-30.325 12.691,4.007 25.383,17.165 31.73,36.045 C 6.347,-247.731 0,-81.815 0,-40.049 Z" /></g><g
           transform="translate(480.7935,944.0384)"
           id="g24"><path
             id="path26"
             style="fill:#16202c;fill-opacity:1;fill-rule:nonzero;stroke:none"
             d="m 0,0 c 0,-7.154 0.578,-100.709 1.154,-134.828 0,-11.009 2.308,-19.813 9.807,-30.819 9.232,-11.555 32.309,-17.61 61.157,-17.61 58.846,0 106.73,24.213 135.578,59.434 24.231,28.618 42.116,73.744 42.116,123.823 0,42.925 -19.617,92.454 -47.308,121.619 -30.001,31.37 -80.771,52.832 -144.81,52.832 -12.692,0 -36.349,0 -46.154,-5.502 C 3.462,163.995 1.154,155.189 0.578,143.083 0,119.969 0,47.877 0,39.073 Z m -53.077,53.381 c 0,14.308 -1.73,92.454 -2.885,101.808 -1.732,13.209 -9.231,15.41 -24.807,15.41 h -31.732 c -2.887,0 -4.617,0.548 -4.617,3.852 v 14.859 c 0,2.201 1.73,2.751 4.039,2.751 7.501,0 32.886,-1.65 84.809,-1.65 15,0 72.694,1.65 85.964,1.65 74.422,0 136.732,-8.255 187.501,-49.528 37.501,-30.817 64.041,-76.496 64.041,-140.332 0,-63.287 -19.039,-105.112 -57.116,-144.736 -55.385,-58.33 -135.002,-58.33 -179.426,-58.33 -36.347,0 -80.193,1.648 -106.157,1.648 -50.192,0 -73.27,-1.648 -81.347,-1.648 -2.884,0 -4.036,1.099 -4.036,3.85 v 14.308 c 0,2.201 1.728,3.304 4.612,3.304 h 38.656 c 10.963,0 17.308,4.401 18.462,13.205 1.73,11.557 4.039,135.379 4.039,178.304 z" /></g><g
           transform="translate(1867.1355,958.5133)"
           id="g28"><path
             id="path30"
             style="fill:#f03a2d;fill-opacity:1;fill-rule:nonzero;stroke:none"
             d="m 0,0 c -10.099,-10.413 -16.442,-24.513 -19.043,-42.31 h 123.13 C 102.784,-23.338 96.441,-8.943 85.052,0.88 73.656,10.703 59.528,15.617 42.66,15.617 24.313,15.617 10.099,10.409 0,0 m 106.919,61.738 c 19.066,-8.541 34.814,-22.021 47.23,-40.434 11.194,-16.243 18.456,-35.077 21.782,-56.512 1.92,-12.557 2.708,-30.639 2.353,-54.246 H -20.794 c 1.111,-27.419 10.64,-46.644 28.579,-57.678 10.918,-6.854 24.051,-10.281 39.414,-10.281 16.279,0 29.504,4.179 39.682,12.539 5.547,4.514 10.456,10.783 14.706,18.807 h 72.962 c -1.92,-16.219 -10.748,-32.685 -26.488,-49.401 -24.491,-26.581 -58.764,-39.872 -102.838,-39.872 -36.372,0 -68.471,11.212 -96.28,33.631 -27.807,22.422 -41.708,58.899 -41.708,109.434 0,47.344 12.55,83.656 37.658,108.922 25.099,25.266 57.684,37.9 97.738,37.9 23.789,0 45.222,-4.271 64.288,-12.809" /></g><g
           transform="translate(1471.5488,967.0031)"
           id="g32"><path
             id="path34"
             style="fill:#f03a2d;fill-opacity:1;fill-rule:nonzero;stroke:none"
             d="m 0,0 v 50.906 h 38.116 v 76.233 h 70.725 V 50.906 h 44.381 V 0 h -44.381 v -144.441 c 0,-11.205 1.411,-18.183 4.258,-20.938 2.841,-2.763 11.536,-4.14 26.081,-4.14 2.167,0 4.468,0.039 6.897,0.127 2.424,0.083 4.799,0.206 7.145,0.375 v -53.413 l -33.857,-1.254 c -33.764,-1.17 -56.835,4.679 -69.211,17.553 -8.025,8.191 -12.038,20.814 -12.038,37.866 L 38.116,0 Z" /></g><g
           transform="translate(1278.1416,1022.5284)"
           id="g36"><path
             id="path38"
             style="fill:#f03a2d;fill-opacity:1;fill-rule:nonzero;stroke:none"
             d="m 0,0 v -164.754 c 0,-15.548 1.836,-27.252 5.494,-35.108 6.488,-13.877 19.211,-20.814 38.178,-20.814 24.282,0 40.918,9.862 49.906,29.591 4.654,10.698 6.984,24.826 6.984,42.38 V 0 h 72.474 V -273.336 H 103.57 v 38.618 c -0.663,-0.837 -2.338,-3.345 -4.999,-7.522 -2.671,-4.184 -5.833,-7.86 -9.498,-11.034 -11.173,-10.031 -21.968,-16.887 -32.384,-20.564 -10.425,-3.676 -22.639,-5.517 -36.643,-5.517 -40.339,0 -67.515,14.545 -81.518,43.634 -7.832,16.048 -11.753,39.701 -11.753,70.967 V 0 Z" /></g><g
           transform="translate(1661.1416,798.738)"
           id="g40"><path
             id="path42"
             style="fill:#f03a2d;fill-opacity:1;fill-rule:nonzero;stroke:none"
             d="M 0,0 C 0,-17.052 4.013,-29.675 12.037,-37.866 24.413,-50.74 47.485,-56.589 81.249,-55.419 l 33.856,1.254 v 53.413 c -2.345,-0.169 -4.72,-0.292 -7.144,-0.375 -2.43,-0.088 -4.73,-0.127 -6.897,-0.127 -14.546,0 -23.24,1.377 -26.081,4.14 -2.848,2.755 -4.258,9.733 -4.258,20.938 l 0.004,144.448 -0.004,127.132 H 0 Z" /></g><g
           transform="translate(2167.0083,743.3192)"
           id="g44"><path
             id="path46"
             style="fill:#f03a2d;fill-opacity:1;fill-rule:nonzero;stroke:none"
             d="m 0,0 c -33.764,-1.17 -58.92,4.679 -71.297,17.553 -8.024,8.191 -12.037,20.814 -12.037,37.866 v 168.265 h -38.116 v 50.906 h 38.116 v 76.233 h 70.725 V 274.59 h 44.38 v -50.906 h -44.38 V 79.243 c 0,-11.205 1.411,-18.183 4.258,-20.938 1.42,-1.381 4.304,-2.416 8.651,-3.106" /></g><path
           id="path48"
           style="fill:#f03a2d;fill-opacity:1;fill-rule:nonzero;stroke:none"
           d="m 2186.984,743.534 h -10.474 v 54.962 h 10.474 z" /><path
           id="path50"
           style="fill:#f03a2d;fill-opacity:1;fill-rule:nonzero;stroke:none"
           d="m 2207.935,743.534 h -10.474 v 54.962 h 10.474 z" /><path
           id="path52"
           style="fill:#f03a2d;fill-opacity:1;fill-rule:nonzero;stroke:none"
           d="m 2228.138,743.534 h -10.474 v 54.962 h 10.474 z" /><g
           transform="translate(1000.2991,801.6549)"
           id="g54"><path
             id="path56"
             style="fill:#f03a2d;fill-opacity:1;fill-rule:nonzero;stroke:none"
             d="m 0,0 c -68.172,0 -123.436,63.731 -123.436,142.347 0,78.616 55.264,142.347 123.436,142.347 68.172,0 123.436,-63.731 123.436,-142.347 C 123.436,63.731 68.172,0 0,0 m 0,339.615 c -105.548,0 -191.112,-89.117 -191.112,-199.049 0,-109.931 85.564,-199.048 191.112,-199.048 105.548,0 191.112,89.117 191.112,199.048 0,109.932 -85.564,199.049 -191.112,199.049" /></g></g></g></g></svg>